<mxfile host="app.diagrams.net" agent="Mozilla/5.0 (Windows NT 10.0; Win64; x64; rv:136.0) Gecko/20100101 Firefox/136.0" version="26.0.16">
  <diagram id="C5RBs43oDa-KdzZeNtuy" name="Page-1">
    <mxGraphModel dx="1434" dy="782" grid="1" gridSize="10" guides="1" tooltips="1" connect="1" arrows="1" fold="1" page="1" pageScale="1" pageWidth="827" pageHeight="1169" math="0" shadow="0">
      <root>
        <mxCell id="WIyWlLk6GJQsqaUBKTNV-0" />
        <mxCell id="WIyWlLk6GJQsqaUBKTNV-1" parent="WIyWlLk6GJQsqaUBKTNV-0" />
        <mxCell id="D-wpHk_Uut0GPWnDHKZU-0" value="&lt;div&gt;Choose option (1-4)&lt;/div&gt;&lt;div&gt;Cashier&lt;/div&gt;&lt;div&gt;Inventory&lt;/div&gt;&lt;div&gt;Reports&lt;/div&gt;&lt;div&gt;Exit Program&lt;/div&gt;" style="rounded=1;whiteSpace=wrap;html=1;" parent="WIyWlLk6GJQsqaUBKTNV-1" vertex="1">
          <mxGeometry x="280" y="50" width="230" height="80" as="geometry" />
        </mxCell>
        <mxCell id="D-wpHk_Uut0GPWnDHKZU-2" value="CHECK inventory" style="rounded=1;whiteSpace=wrap;html=1;" parent="WIyWlLk6GJQsqaUBKTNV-1" vertex="1">
          <mxGeometry x="220" y="420" width="120" height="50" as="geometry" />
        </mxCell>
        <mxCell id="D-wpHk_Uut0GPWnDHKZU-5" style="edgeStyle=orthogonalEdgeStyle;rounded=0;orthogonalLoop=1;jettySize=auto;html=1;exitX=0.5;exitY=0;exitDx=0;exitDy=0;entryX=0.5;entryY=1;entryDx=0;entryDy=0;" parent="WIyWlLk6GJQsqaUBKTNV-1" source="D-wpHk_Uut0GPWnDHKZU-4" target="D-wpHk_Uut0GPWnDHKZU-0" edge="1">
          <mxGeometry relative="1" as="geometry" />
        </mxCell>
        <mxCell id="D-wpHk_Uut0GPWnDHKZU-7" style="edgeStyle=orthogonalEdgeStyle;rounded=0;orthogonalLoop=1;jettySize=auto;html=1;exitX=1;exitY=0.5;exitDx=0;exitDy=0;entryX=0.5;entryY=0;entryDx=0;entryDy=0;" parent="WIyWlLk6GJQsqaUBKTNV-1" source="D-wpHk_Uut0GPWnDHKZU-4" target="D-wpHk_Uut0GPWnDHKZU-13" edge="1">
          <mxGeometry relative="1" as="geometry">
            <mxPoint x="480" y="320" as="targetPoint" />
            <Array as="points">
              <mxPoint x="480" y="220" />
              <mxPoint x="480" y="320" />
            </Array>
          </mxGeometry>
        </mxCell>
        <mxCell id="D-wpHk_Uut0GPWnDHKZU-8" style="edgeStyle=orthogonalEdgeStyle;rounded=0;orthogonalLoop=1;jettySize=auto;html=1;exitX=1;exitY=0;exitDx=0;exitDy=0;" parent="WIyWlLk6GJQsqaUBKTNV-1" source="D-wpHk_Uut0GPWnDHKZU-4" target="D-wpHk_Uut0GPWnDHKZU-14" edge="1">
          <mxGeometry relative="1" as="geometry">
            <mxPoint x="620" y="320" as="targetPoint" />
          </mxGeometry>
        </mxCell>
        <mxCell id="D-wpHk_Uut0GPWnDHKZU-9" style="edgeStyle=orthogonalEdgeStyle;rounded=0;orthogonalLoop=1;jettySize=auto;html=1;exitX=0;exitY=0;exitDx=0;exitDy=0;entryX=0.5;entryY=0;entryDx=0;entryDy=0;" parent="WIyWlLk6GJQsqaUBKTNV-1" source="D-wpHk_Uut0GPWnDHKZU-4" target="D-wpHk_Uut0GPWnDHKZU-15" edge="1">
          <mxGeometry relative="1" as="geometry">
            <mxPoint x="150" y="310" as="targetPoint" />
            <Array as="points">
              <mxPoint x="350" y="220" />
              <mxPoint x="140" y="220" />
            </Array>
          </mxGeometry>
        </mxCell>
        <mxCell id="D-wpHk_Uut0GPWnDHKZU-10" style="edgeStyle=orthogonalEdgeStyle;rounded=0;orthogonalLoop=1;jettySize=auto;html=1;exitX=0;exitY=0.5;exitDx=0;exitDy=0;entryX=0.5;entryY=0;entryDx=0;entryDy=0;" parent="WIyWlLk6GJQsqaUBKTNV-1" source="D-wpHk_Uut0GPWnDHKZU-4" target="D-wpHk_Uut0GPWnDHKZU-2" edge="1">
          <mxGeometry relative="1" as="geometry">
            <mxPoint x="280" y="320" as="targetPoint" />
          </mxGeometry>
        </mxCell>
        <mxCell id="D-wpHk_Uut0GPWnDHKZU-4" value="direct user to userchoiice" style="rhombus;whiteSpace=wrap;html=1;" parent="WIyWlLk6GJQsqaUBKTNV-1" vertex="1">
          <mxGeometry x="320" y="180" width="120" height="80" as="geometry" />
        </mxCell>
        <mxCell id="D-wpHk_Uut0GPWnDHKZU-13" value="operate reports check" style="rounded=1;whiteSpace=wrap;html=1;" parent="WIyWlLk6GJQsqaUBKTNV-1" vertex="1">
          <mxGeometry x="420" y="350" width="120" height="50" as="geometry" />
        </mxCell>
        <mxCell id="D-wpHk_Uut0GPWnDHKZU-14" value="exit program" style="rounded=1;whiteSpace=wrap;html=1;" parent="WIyWlLk6GJQsqaUBKTNV-1" vertex="1">
          <mxGeometry x="570" y="320" width="120" height="50" as="geometry" />
        </mxCell>
        <mxCell id="o3Ycr1pED_6flUbfu8QL-7" value="" style="edgeStyle=orthogonalEdgeStyle;rounded=0;orthogonalLoop=1;jettySize=auto;html=1;" edge="1" parent="WIyWlLk6GJQsqaUBKTNV-1" source="D-wpHk_Uut0GPWnDHKZU-15" target="o3Ycr1pED_6flUbfu8QL-0">
          <mxGeometry relative="1" as="geometry" />
        </mxCell>
        <mxCell id="D-wpHk_Uut0GPWnDHKZU-15" value="operate cashier function" style="rounded=1;whiteSpace=wrap;html=1;" parent="WIyWlLk6GJQsqaUBKTNV-1" vertex="1">
          <mxGeometry x="80" y="320" width="120" height="40" as="geometry" />
        </mxCell>
        <mxCell id="D-wpHk_Uut0GPWnDHKZU-16" value="If 1" style="text;html=1;align=center;verticalAlign=middle;whiteSpace=wrap;rounded=0;" parent="WIyWlLk6GJQsqaUBKTNV-1" vertex="1">
          <mxGeometry x="160" y="170" width="60" height="30" as="geometry" />
        </mxCell>
        <mxCell id="D-wpHk_Uut0GPWnDHKZU-17" value="If 2" style="text;html=1;align=center;verticalAlign=middle;whiteSpace=wrap;rounded=0;" parent="WIyWlLk6GJQsqaUBKTNV-1" vertex="1">
          <mxGeometry x="280" y="250" width="60" height="30" as="geometry" />
        </mxCell>
        <mxCell id="D-wpHk_Uut0GPWnDHKZU-19" value="If 3" style="text;html=1;align=center;verticalAlign=middle;whiteSpace=wrap;rounded=0;" parent="WIyWlLk6GJQsqaUBKTNV-1" vertex="1">
          <mxGeometry x="480" y="250" width="60" height="30" as="geometry" />
        </mxCell>
        <mxCell id="D-wpHk_Uut0GPWnDHKZU-21" value="if 4" style="text;html=1;align=center;verticalAlign=middle;whiteSpace=wrap;rounded=0;" parent="WIyWlLk6GJQsqaUBKTNV-1" vertex="1">
          <mxGeometry x="630" y="240" width="60" height="30" as="geometry" />
        </mxCell>
        <mxCell id="o3Ycr1pED_6flUbfu8QL-0" value="POS algortihm" style="rounded=1;whiteSpace=wrap;html=1;" vertex="1" parent="WIyWlLk6GJQsqaUBKTNV-1">
          <mxGeometry x="80" y="410" width="120" height="50" as="geometry" />
        </mxCell>
        <mxCell id="o3Ycr1pED_6flUbfu8QL-1" value="operate inventory check" style="rounded=1;whiteSpace=wrap;html=1;" vertex="1" parent="WIyWlLk6GJQsqaUBKTNV-1">
          <mxGeometry x="230" y="340" width="120" height="50" as="geometry" />
        </mxCell>
        <mxCell id="o3Ycr1pED_6flUbfu8QL-4" value="" style="edgeStyle=orthogonalEdgeStyle;rounded=0;orthogonalLoop=1;jettySize=auto;html=1;" edge="1" parent="WIyWlLk6GJQsqaUBKTNV-1" source="o3Ycr1pED_6flUbfu8QL-2" target="D-wpHk_Uut0GPWnDHKZU-13">
          <mxGeometry relative="1" as="geometry" />
        </mxCell>
        <mxCell id="o3Ycr1pED_6flUbfu8QL-2" value="Check reports" style="rounded=1;whiteSpace=wrap;html=1;" vertex="1" parent="WIyWlLk6GJQsqaUBKTNV-1">
          <mxGeometry x="420" y="430" width="120" height="50" as="geometry" />
        </mxCell>
      </root>
    </mxGraphModel>
  </diagram>
</mxfile>
